<svg width="68" height="68" viewBox="0 0 68 68" fill="none" xmlns="http://www.w3.org/2000/svg">
<path d="M33.9999 0.879883C15.7253 0.879883 0.879883 15.7253 0.879883 33.9999C0.879883 52.2745 15.7253 67.1199 33.9999 67.1199C52.2745 67.1199 67.1199 52.2745 67.1199 33.9999C67.1199 15.7253 52.2745 0.879883 33.9999 0.879883ZM33.9999 3.75988C50.718 3.75988 64.2399 17.2817 64.2399 33.9999C64.2399 50.718 50.718 64.2399 33.9999 64.2399C17.2817 64.2399 3.75988 50.718 3.75988 33.9999C3.75988 17.2817 17.2817 3.75988 33.9999 3.75988ZM28.178 29.6658C27.8046 29.6858 27.4536 29.8502 27.1993 30.1243C21.3342 36.255 15.4543 35.4174 15.4543 35.4174C15.2634 35.3876 15.0685 35.3966 14.8812 35.4437C14.6939 35.4908 14.518 35.5751 14.3639 35.6916C14.2099 35.8081 14.0808 35.9543 13.9844 36.1217C13.8881 36.2891 13.8263 36.4742 13.8029 36.6659C13.7795 36.8576 13.7949 37.0521 13.8482 37.2377C13.9015 37.4234 13.9916 37.5964 14.1131 37.7465C14.2347 37.8966 14.3851 38.0208 14.5556 38.1115C14.7261 38.2023 14.9131 38.2579 15.1055 38.2749C15.1055 38.2749 22.6233 39.0743 29.2805 32.1155C29.4847 31.9087 29.6215 31.6449 29.6729 31.3588C29.7244 31.0728 29.6881 30.7779 29.5688 30.5128C29.4495 30.2478 29.2528 30.0251 29.0046 29.8739C28.7564 29.7227 28.4682 29.6502 28.178 29.6658ZM39.7768 29.6658C39.4904 29.6597 39.2087 29.7391 38.9677 29.8939C38.7267 30.0487 38.5373 30.2719 38.4238 30.5349C38.3103 30.7978 38.2777 31.0887 38.3304 31.3703C38.383 31.6518 38.5184 31.9113 38.7193 32.1155C45.3765 39.0743 52.8943 38.2749 52.8943 38.2749C53.0866 38.2579 53.2737 38.2023 53.4441 38.1115C53.6146 38.0208 53.7651 37.8966 53.8866 37.7465C54.0082 37.5964 54.0982 37.4234 54.1515 37.2377C54.2048 37.0521 54.2202 36.8576 54.1968 36.6659C54.1734 36.4742 54.1117 36.2891 54.0153 36.1217C53.9189 35.9543 53.7899 35.8081 53.6358 35.6916C53.4818 35.5751 53.3058 35.4908 53.1185 35.4437C52.9312 35.3966 52.7363 35.3876 52.5455 35.4174C52.5455 35.4174 46.6655 36.255 40.8005 30.1243C40.6692 29.9832 40.5109 29.87 40.3351 29.7913C40.1593 29.7125 39.9694 29.6699 39.7768 29.6658ZM33.9999 45.5199C25.8399 45.5199 21.2452 53.4202 21.2452 53.4202C21.1403 53.5825 21.0691 53.7643 21.0359 53.9546C21.0027 54.145 21.0081 54.3402 21.0519 54.5284C21.0957 54.7166 21.1769 54.8941 21.2907 55.0503C21.4046 55.2065 21.5487 55.3382 21.7145 55.4375C21.8803 55.5368 22.0643 55.6018 22.2558 55.6285C22.4472 55.6551 22.642 55.643 22.8286 55.5928C23.0153 55.5426 23.1899 55.4554 23.3421 55.3363C23.4943 55.2172 23.621 55.0687 23.7146 54.8996C23.7146 54.8996 27.7599 48.3999 33.9999 48.3999C40.2399 48.3999 44.2852 54.8996 44.2852 54.8996C44.3788 55.0687 44.5055 55.2172 44.6577 55.3363C44.8099 55.4554 44.9845 55.5426 45.1711 55.5928C45.3578 55.643 45.5526 55.6551 45.744 55.6285C45.9354 55.6018 46.1195 55.5368 46.2853 55.4375C46.4511 55.3382 46.5952 55.2065 46.709 55.0503C46.8229 54.8941 46.9041 54.7166 46.9479 54.5284C46.9917 54.3402 46.9971 54.145 46.9639 53.9546C46.9307 53.7643 46.8595 53.5825 46.7546 53.4202C46.7546 53.4202 42.1599 45.5199 33.9999 45.5199Z" fill="black"/>
</svg>
